<?xml version="1.0" encoding="UTF-8"?>
<svg id="Main_Page" data-name="Main Page" xmlns="http://www.w3.org/2000/svg" viewBox="0 0 1920 1080">
  <defs>
    <style>
      .cls-1 {
        fill: none;
      }

      .cls-1, .cls-2 {
        stroke: #000;
        stroke-miterlimit: 10;
        stroke-width: 3px;
      }

      .cls-2 {
        fill: #fff;
      }
    </style>
  </defs>
  <g>
    <path class="cls-2" d="m707.83,665.92c0-139.27,112.9-252.17,252.17-252.17s252.17,112.9,252.17,252.17"/>
    <g>
      <line class="cls-2" x1="589.89" y1="666.25" x2="829.75" y2="666.25"/>
      <line class="cls-2" x1="855.16" y1="666.25" x2="920.29" y2="666.25"/>
      <line class="cls-2" x1="977.53" y1="666.25" x2="1096.21" y2="666.25"/>
      <line class="cls-2" x1="1126.79" y1="666.25" x2="1330.11" y2="666.25"/>
    </g>
  </g>
  <line class="cls-2" x1="677.5" y1="702.5" x2="952.2" y2="702.5"/>
  <line class="cls-2" x1="1002.6" y1="702.5" x2="1185.8" y2="702.5"/>
  <line class="cls-2" x1="881.5" y1="741.5" x2="1067.4" y2="741.5"/>
  <line class="cls-2" x1="939" y1="665.92" x2="944.2" y2="665.92"/>
  <line class="cls-2" x1="989.8" y1="702.5" x2="983.4" y2="702.5"/>
  <line class="cls-2" x1="873.4" y1="741.5" x2="869.4" y2="741.5"/>
  <line class="cls-2" x1="1194.6" y1="702.5" x2="1199.4" y2="702.5"/>
  <line class="cls-2" x1="1339.4" y1="665.92" x2="1346.33" y2="665.92"/>
  <line class="cls-2" x1="584.2" y1="666.25" x2="577" y2="666.25"/>
  <g>
    <line class="cls-1" x1="673.31" y1="629.93" x2="621.74" y2="624.19"/>
    <line class="cls-1" x1="690.22" y1="562.3" x2="641.53" y2="544.38"/>
    <line class="cls-1" x1="722.83" y1="500.67" x2="679.84" y2="471.62"/>
    <line class="cls-1" x1="769.23" y1="448.63" x2="734.44" y2="410.14"/>
    <line class="cls-1" x1="826.75" y1="409.22" x2="802.18" y2="363.52"/>
    <line class="cls-1" x1="892.02" y1="384.71" x2="879.1" y2="334.46"/>
    <line class="cls-1" x1="961.26" y1="376.54" x2="960.74" y2="324.66"/>
    <line class="cls-1" x1="1030.44" y1="385.17" x2="1042.36" y2="334.68"/>
    <line class="cls-1" x1="1095.55" y1="410.12" x2="1119.2" y2="363.94"/>
    <line class="cls-1" x1="1152.8" y1="449.91" x2="1186.81" y2="410.74"/>
    <line class="cls-1" x1="1198.86" y1="502.25" x2="1241.26" y2="472.36"/>
    <line class="cls-1" x1="1231.05" y1="564.1" x2="1279.38" y2="545.22"/>
    <line class="cls-1" x1="1247.51" y1="631.85" x2="1298.95" y2="625.08"/>
  </g>
</svg>