<?xml version="1.0" encoding="UTF-8"?>
<svg id="Main_Page" data-name="Main Page" xmlns="http://www.w3.org/2000/svg" viewBox="0 0 1000 1000">
  <defs>
    <style>
      .cls-1 {
        fill: #fff;
      }
    </style>
  </defs>
  <g>
    <path class="cls-1" d="m326.42,743.25c-15.99,0-29-13.01-29-29v-428.5c0-15.99,13.01-29,29-29h242.38l133.78,124.97v332.53c0,15.99-13.01,29-29,29h-347.16Z"/>
    <path d="m566.43,262.75l130.15,121.58v329.93c0,12.7-10.3,23-23,23h-347.16c-12.7,0-23-10.3-23-23v-428.5c0-12.7,10.3-23,23-23h240.01m4.73-12h-244.74c-19.3,0-35,15.7-35,35v428.5c0,19.3,15.7,35,35,35h347.16c19.3,0,35-15.7,35-35v-335.14l-3.81-3.56-130.15-121.58-3.46-3.23h0Z"/>
  </g>
  <g>
    <path class="cls-1" d="m589.43,390.69c-15.99,0-29-13.01-29-29v-98.94l10.1-4.38,130.15,121.58-4.08,10.38-107.17.36Z"/>
    <path d="m566.43,262.75l130.15,121.58-107.07.36s-.05,0-.08,0c-12.7,0-23-10.29-23-23v-98.94m8.19-8.77l-20.19,8.77v98.94c0,19.3,15.7,35,35,35h.12s107.07-.36,107.07-.36l8.15-20.77-130.15-121.58h0Z"/>
  </g>
</svg>