<?xml version="1.0" encoding="UTF-8"?>
<svg id="Main_Page" data-name="Main Page" xmlns="http://www.w3.org/2000/svg" viewBox="0 0 1000 1000">
  <defs>
    <style>
      .cls-1 {
        fill: #fff;
      }
    </style>
  </defs>
  <g>
    <path class="cls-1" d="m283.31,254.1h433.39c16.12,0,29.21,13.09,29.21,29.21v433.39c0,16.12-13.09,29.21-29.21,29.21h-433.39c-16.12,0-29.21-13.09-29.21-29.21v-433.39c0-16.12,13.09-29.21,29.21-29.21Z"/>
    <path d="m716.69,260.1c12.82,0,23.21,10.39,23.21,23.21v433.39c0,12.82-10.39,23.21-23.21,23.21h-433.39c-12.82,0-23.21-10.39-23.21-23.21v-433.39c0-12.82,10.39-23.21,23.21-23.21h433.39m0-12h-433.39c-19.41,0-35.21,15.79-35.21,35.21v433.39c0,19.41,15.79,35.21,35.21,35.21h433.39c19.41,0,35.21-15.79,35.21-35.21v-433.39c0-19.41-15.79-35.21-35.21-35.21h0Z"/>
  </g>
  <g>
    <path d="m287.1,745.9c-18.2,0-33-14.8-33-33v-136.04l3.87-1.47c30.5-11.6,57.62-17.24,82.92-17.24,35.94,0,63.04,11.44,89.25,22.5,26.43,11.16,51.4,21.69,85.34,21.69,91.1,0,221.72-30.99,223.03-31.31l7.4-1.77v143.63c0,18.2-14.8,33-33,33h-425.8Z"/>
    <path d="m340.88,564.15c69.6,0,104.42,44.19,174.59,44.19,92.86,0,224.42-31.47,224.42-31.47v136.03c0,14.91-12.09,27-27,27h-425.8c-14.91,0-27-12.09-27-27v-131.9c32.14-12.23,58.28-16.85,80.78-16.85m0-12v12-12c-26.05,0-53.87,5.77-85.05,17.63l-7.73,2.94v140.18c0,21.5,17.5,39,39,39h425.8c21.5,0,39-17.5,39-39v-151.24l-14.79,3.54c-1.3.31-131.28,31.14-221.63,31.14-32.73,0-57.15-10.31-83.01-21.22-26.76-11.29-54.43-22.97-91.58-22.97h0Z"/>
  </g>
  <g>
    <path d="m403.98,454.12c-28.91,0-52.43-23.52-52.43-52.43s23.52-52.43,52.43-52.43,52.43,23.52,52.43,52.43-23.52,52.43-52.43,52.43Z"/>
    <path d="m403.98,355.26c25.64,0,46.43,20.79,46.43,46.43s-20.79,46.43-46.43,46.43-46.43-20.79-46.43-46.43,20.79-46.43,46.43-46.43m0-12c-32.22,0-58.43,26.21-58.43,58.43s26.21,58.43,58.43,58.43,58.43-26.21,58.43-58.43-26.21-58.43-58.43-58.43h0Z"/>
  </g>
</svg>