<?xml version="1.0" encoding="UTF-8"?>
<svg id="Main_Page" data-name="Main Page" xmlns="http://www.w3.org/2000/svg" viewBox="0 0 1000 1000">
  <defs>
    <style>
      .cls-1 {
        fill: #fff;
      }
    </style>
  </defs>
  <g>
    <polygon points="365.05 745.33 365.05 290.17 473.87 290.17 473.87 642.63 670.45 642.63 670.45 745.33 365.05 745.33"/>
    <path d="m467.87,296.17v352.46h196.58v90.7h-293.4v-443.17h96.81m12-12h-120.81v467.17h317.4v-114.7h-196.58v-352.46h0Z"/>
  </g>
  <g>
    <polygon class="cls-1" points="329.55 709.83 329.55 254.67 438.37 254.67 438.37 607.13 634.95 607.13 634.95 709.83 329.55 709.83"/>
    <path d="m432.37,260.67v352.46h196.58v90.7h-293.4v-443.17h96.81m12-12h-120.81v467.17h317.4v-114.7h-196.58V248.67h0Z"/>
  </g>
</svg>